<svg width="47" height="59" viewBox="0 0 47 59" fill="none" xmlns="http://www.w3.org/2000/svg">
<g opacity="0.4">
<mask id="path-1-outside-1_1_36" maskUnits="userSpaceOnUse" x="0" y="0" width="47" height="59" fill="black">
<rect fill="white" width="47" height="59"/>
<path d="M41.9328 40.976H45.0688V58H1.72475V55.2L29.8368 5.136H15.2768C13.5594 5.136 12.2901 5.21066 11.4688 5.36C10.7221 5.43466 10.2368 5.696 10.0128 6.144C9.78875 6.51733 9.52742 7.152 9.22875 8.048L6.20475 18.24H3.06875V1.216H43.9488V4.016L15.8368 54.08H32.8608C34.6528 54.08 35.9221 54.0427 36.6688 53.968C37.4154 53.8187 37.9008 53.5573 38.1248 53.184C38.4234 52.736 38.6848 52.064 38.9088 51.168L41.9328 40.976Z"/>
</mask>
<path d="M41.9328 40.976H45.0688V58H1.72475V55.2L29.8368 5.136H15.2768C13.5594 5.136 12.2901 5.21066 11.4688 5.36C10.7221 5.43466 10.2368 5.696 10.0128 6.144C9.78875 6.51733 9.52742 7.152 9.22875 8.048L6.20475 18.24H3.06875V1.216H43.9488V4.016L15.8368 54.08H32.8608C34.6528 54.08 35.9221 54.0427 36.6688 53.968C37.4154 53.8187 37.9008 53.5573 38.1248 53.184C38.4234 52.736 38.6848 52.064 38.9088 51.168L41.9328 40.976Z" fill="#121212"/>
<path d="M41.9328 40.976V39.976H41.1864L40.9741 40.6916L41.9328 40.976ZM45.0688 40.976H46.0688V39.976H45.0688V40.976ZM45.0688 58V59H46.0688V58H45.0688ZM1.72475 58H0.72475V59H1.72475V58ZM1.72475 55.2L0.85281 54.7104L0.72475 54.9384V55.2H1.72475ZM29.8368 5.136L30.7087 5.62561L31.5451 4.136H29.8368V5.136ZM11.4688 5.36L11.5683 6.35503L11.6082 6.35104L11.6476 6.34387L11.4688 5.36ZM10.0128 6.144L10.8702 6.65849L10.89 6.62556L10.9072 6.59121L10.0128 6.144ZM9.22875 8.048L8.28007 7.73177L8.2748 7.74758L8.27006 7.76355L9.22875 8.048ZM6.20475 18.24V19.24H6.95113L7.16344 18.5244L6.20475 18.24ZM3.06875 18.24H2.06875V19.24H3.06875V18.24ZM3.06875 1.216V0.215997H2.06875V1.216H3.06875ZM43.9488 1.216H44.9488V0.215997H43.9488V1.216ZM43.9488 4.016L44.8207 4.50561L44.9488 4.27755V4.016H43.9488ZM15.8368 54.08L14.9648 53.5904L14.1284 55.08H15.8368V54.08ZM36.6688 53.968L36.7683 54.963L36.8169 54.9582L36.8649 54.9486L36.6688 53.968ZM38.1248 53.184L37.2927 52.6293L37.2795 52.6491L37.2673 52.6695L38.1248 53.184ZM38.9088 51.168L37.9501 50.8836L37.9439 50.9044L37.9386 50.9255L38.9088 51.168ZM41.9328 40.976V41.976H45.0688V40.976V39.976H41.9328V40.976ZM45.0688 40.976H44.0688V58H45.0688H46.0688V40.976H45.0688ZM45.0688 58V57H1.72475V58V59H45.0688V58ZM1.72475 58H2.72475V55.2H1.72475H0.72475V58H1.72475ZM1.72475 55.2L2.59669 55.6896L30.7087 5.62561L29.8368 5.136L28.9648 4.64638L0.85281 54.7104L1.72475 55.2ZM29.8368 5.136V4.136H15.2768V5.136V6.136H29.8368V5.136ZM15.2768 5.136V4.136C13.5484 4.136 12.2042 4.20989 11.2899 4.37613L11.4688 5.36L11.6476 6.34387C12.376 6.21144 13.5705 6.136 15.2768 6.136V5.136ZM11.4688 5.36L11.3692 4.36496C10.4631 4.45557 9.56276 4.80792 9.11832 5.69678L10.0128 6.144L10.9072 6.59121C10.9107 6.58408 10.981 6.41376 11.5683 6.35503L11.4688 5.36ZM10.0128 6.144L9.15526 5.6295C8.87094 6.10336 8.58148 6.82754 8.28007 7.73177L9.22875 8.048L10.1774 8.36423C10.4734 7.47645 10.7066 6.9313 10.8702 6.65849L10.0128 6.144ZM9.22875 8.048L8.27006 7.76355L5.24606 17.9556L6.20475 18.24L7.16344 18.5244L10.1874 8.33245L9.22875 8.048ZM6.20475 18.24V17.24H3.06875V18.24V19.24H6.20475V18.24ZM3.06875 18.24H4.06875V1.216H3.06875H2.06875V18.24H3.06875ZM3.06875 1.216V2.216H43.9488V1.216V0.215997H3.06875V1.216ZM43.9488 1.216H42.9488V4.016H43.9488H44.9488V1.216H43.9488ZM43.9488 4.016L43.0768 3.52638L14.9648 53.5904L15.8368 54.08L16.7087 54.5696L44.8207 4.50561L43.9488 4.016ZM15.8368 54.08V55.08H32.8608V54.08V53.08H15.8368V54.08ZM32.8608 54.08V55.08C34.6531 55.08 35.9669 55.0432 36.7683 54.963L36.6688 53.968L36.5692 52.973C35.8772 53.0422 34.6524 53.08 32.8608 53.08V54.08ZM36.6688 53.968L36.8649 54.9486C37.6935 54.7829 38.5357 54.4427 38.9822 53.6985L38.1248 53.184L37.2673 52.6695C37.2658 52.672 37.1373 52.8545 36.4726 52.9874L36.6688 53.968ZM38.1248 53.184L38.9568 53.7387C39.3488 53.1508 39.644 52.35 39.8789 51.4105L38.9088 51.168L37.9386 50.9255C37.7255 51.778 37.4981 52.3212 37.2927 52.6293L38.1248 53.184ZM38.9088 51.168L39.8674 51.4524L42.8914 41.2604L41.9328 40.976L40.9741 40.6916L37.9501 50.8836L38.9088 51.168Z" fill="black" mask="url(#path-1-outside-1_1_36)"/>
</g>
</svg>
